<svg width="50" height="50" viewBox="0 0 50 50" fill="none" xmlns="http://www.w3.org/2000/svg">
<g id="cancel_outline_28">
<path id="&#226;&#134;&#179; Icon Color" d="M11.2374 11.2373C11.9347 10.54 13.0654 10.54 13.7628 11.2373L25.0001 22.4732L36.2374 11.2373C36.8811 10.5936 37.894 10.5441 38.5945 11.0888L38.7628 11.2373C39.4601 11.9347 39.4601 13.0653 38.7628 13.7627L27.5269 25L38.7628 36.2373C39.4065 36.881 39.456 37.894 38.9113 38.5945L38.7628 38.7627C38.0654 39.4601 36.9347 39.4601 36.2374 38.7627L25.0001 27.5268L13.7628 38.7627C13.119 39.4064 12.1061 39.4559 11.4056 38.9112L11.2374 38.7627C10.54 38.0653 10.54 36.9347 11.2374 36.2373L22.4733 25L11.2374 13.7627C10.5937 13.119 10.5441 12.1061 11.0888 11.4055L11.2374 11.2373Z" fill="#212121"/>
</g>
</svg>
