<svg width="500" height="500" viewBox="0 0 500 500" fill="none" xmlns="http://www.w3.org/2000/svg">
<path d="M200.193 0H201.64C204.052 0.000496552 206.142 0.808693 207.911 2.42457V3.23276C207.911 6.8252 206.142 11.5845 202.605 17.5108C199.71 24.1564 192.394 37.0874 180.656 56.3039C167.953 78.754 154.205 112.518 139.411 157.597C133.623 179.508 130.728 191.541 130.728 193.696V194.774V197.468H130.97L162.808 147.36C176.958 127.784 193.922 105.963 213.7 81.8966C230.262 64.476 239.669 55.3165 241.92 54.4181C258.803 40.9487 271.748 34.2138 280.753 34.2134C285.737 34.2138 288.229 36.9976 288.23 42.5647C288.229 44.3611 285.978 51.8144 281.476 64.9246C271.989 92.0442 265.075 113.776 260.733 130.119C255.105 154.185 251.005 174.12 248.432 189.925C247.467 194.056 246.985 196.839 246.985 198.276V200.7C255.989 187.59 263.386 177.353 269.175 169.989C282.843 152.209 292.249 140.356 297.395 134.429C311.545 118.086 325.936 102.82 340.569 88.6315C356.005 73.7253 371.281 60.7045 386.397 49.569C402.797 38.0752 416.626 29.4545 427.882 23.7069C456.343 8.80077 477.005 1.34748 489.87 1.34698C494.372 1.34748 497.346 2.42507 498.794 4.57974C499.598 5.47822 500 6.3762 500 7.27371V8.62069C500 12.5723 495.497 18.7684 486.493 27.2091C478.935 35.2914 469.689 45.7979 458.755 58.7284C445.087 73.9947 429.731 92.7626 412.687 115.032C404.968 124.372 394.918 138.111 382.537 156.25C363.081 183.549 346.277 209.501 332.127 234.106C312.027 267.87 293.294 302.622 275.929 338.362C268.692 355.783 263.547 370.78 260.492 383.351L260.251 385.237H260.733C276.33 369.433 289.114 357.4 299.083 349.138C324.811 329.023 345.795 314.386 362.036 305.226C373.452 299.3 383.1 296.336 390.979 296.336C394.838 296.516 396.768 297.324 396.768 298.761C396.768 300.377 392.587 304.418 384.226 310.884C350.458 334.77 327.705 351.293 315.967 360.453C305.997 368.355 294.742 378.233 282.2 390.086C262.421 410.74 249.718 425.377 244.091 433.998C229.779 453.394 217.88 471.354 208.394 487.877C204.374 495.959 199.791 500 194.645 500H193.439C187.168 500 180.897 490.032 174.626 470.097C165.621 438.667 161.119 394.666 161.119 338.093L161.843 301.185C161.843 299.928 161.601 299.3 161.119 299.3C140.698 319.415 128.879 331.627 125.663 335.938C107.654 357.669 94.5489 375.27 86.3483 388.739C63.1934 425.198 43.4957 458.872 27.2552 489.763C24.3608 494.971 21.3056 497.575 18.0897 497.575H17.3661C11.2558 497.575 6.0299 480.783 1.68837 447.198C0.562784 435.165 -7.40948e-06 422.773 0 410.022C-7.40948e-06 365.122 6.91428 315.104 20.7429 259.968C27.6571 234.645 35.8578 210.668 45.3449 188.039C58.5302 155.891 75.414 124.013 95.9961 92.403C103.071 81.9868 113.201 69.0557 126.387 53.6099C142.466 36.9078 153.079 26.8503 158.225 23.4375C177.842 7.81299 191.831 0.000496552 200.193 0Z" fill="#E80080"/>
</svg>
