<svg width="300" height="200" viewBox="0 0 300 200" fill="none" xmlns="http://www.w3.org/2000/svg">
<path d="M0 30C0 13.4315 13.4315 0 30 0H270C286.569 0 300 13.4315 300 30V170C300 186.569 286.569 200 270 200H30C13.4315 200 0 186.569 0 170V30Z" fill="#F7F7F7"/>
<path d="M239.787 108.657C239.465 108.979 239.072 109.14 238.606 109.14C238.141 109.14 237.747 108.979 237.426 108.657C237.104 108.336 236.943 107.942 236.943 107.477C236.943 107.011 237.104 106.618 237.426 106.296C237.747 105.974 238.141 105.813 238.606 105.813C239.072 105.813 239.465 105.974 239.787 106.296C240.109 106.609 240.27 107.003 240.27 107.477C240.27 107.942 240.109 108.336 239.787 108.657Z" fill="#212121"/>
<path d="M232.957 108.657C232.635 108.979 232.242 109.14 231.776 109.14C231.311 109.14 230.917 108.979 230.596 108.657C230.274 108.336 230.113 107.942 230.113 107.477C230.113 107.011 230.274 106.618 230.596 106.296C230.917 105.974 231.311 105.813 231.776 105.813C232.242 105.813 232.635 105.974 232.957 106.296C233.279 106.609 233.439 107.003 233.439 107.477C233.439 107.942 233.279 108.336 232.957 108.657Z" fill="#212121"/>
<path d="M226.127 108.657C225.805 108.979 225.412 109.14 224.946 109.14C224.481 109.14 224.087 108.979 223.766 108.657C223.444 108.336 223.283 107.942 223.283 107.477C223.283 107.011 223.444 106.618 223.766 106.296C224.087 105.974 224.481 105.813 224.946 105.813C225.412 105.813 225.805 105.974 226.127 106.296C226.449 106.609 226.609 107.003 226.609 107.477C226.609 107.942 226.449 108.336 226.127 108.657Z" fill="#212121"/>
<path d="M214.435 97.2822C213.444 97.2822 212.619 97.6123 211.959 98.2725C211.307 98.9326 210.943 99.7917 210.867 100.85H217.862C217.828 99.7747 217.498 98.9115 216.872 98.2598C216.246 97.6081 215.433 97.2822 214.435 97.2822ZM217.85 104.963H220.478C220.283 106.199 219.635 107.21 218.535 107.997C217.435 108.776 216.11 109.165 214.562 109.165C212.564 109.165 210.981 108.539 209.813 107.286C208.654 106.025 208.074 104.315 208.074 102.157C208.074 99.999 208.654 98.2725 209.813 96.9775C210.973 95.6826 212.518 95.0352 214.447 95.0352C216.343 95.0352 217.845 95.6488 218.954 96.876C220.063 98.0947 220.617 99.7493 220.617 101.84V102.805H210.854V102.97C210.854 104.163 211.197 105.124 211.883 105.852C212.568 106.571 213.478 106.931 214.612 106.931C215.416 106.931 216.11 106.753 216.694 106.397C217.278 106.042 217.663 105.564 217.85 104.963Z" fill="#212121"/>
<path d="M200.724 101.7L207.097 109H203.656L198.096 102.589H197.994V109H195.265V95.2129H197.994V101.142H198.096L203.593 95.2129H206.868L200.724 101.7Z" fill="#212121"/>
<path d="M193.195 95.2129V97.3965H188.841V109H186.124V97.3965H181.77V95.2129H193.195Z" fill="#212121"/>
<path d="M178.723 107.261C177.555 108.53 175.972 109.165 173.975 109.165C171.977 109.165 170.39 108.53 169.214 107.261C168.037 105.991 167.449 104.273 167.449 102.106C167.449 99.9482 168.037 98.2301 169.214 96.9521C170.399 95.6742 171.986 95.0352 173.975 95.0352C175.964 95.0352 177.546 95.6742 178.723 96.9521C179.899 98.2217 180.487 99.9398 180.487 102.106C180.487 104.273 179.899 105.991 178.723 107.261ZM171.232 105.623C171.893 106.461 172.807 106.88 173.975 106.88C175.143 106.88 176.052 106.461 176.704 105.623C177.364 104.785 177.694 103.613 177.694 102.106C177.694 100.6 177.364 99.4277 176.704 98.5898C176.052 97.7435 175.143 97.3203 173.975 97.3203C172.807 97.3203 171.893 97.7435 171.232 98.5898C170.572 99.4362 170.242 100.608 170.242 102.106C170.242 103.604 170.572 104.777 171.232 105.623Z" fill="#212121"/>
<path d="M159.032 109.267C156.874 109.267 155.232 108.564 154.106 107.159C152.981 105.754 152.418 103.689 152.418 100.964C152.418 98.3656 152.676 96.2708 153.192 94.6797C153.709 93.0801 154.508 91.8952 155.592 91.125C156.675 90.3548 158.105 89.9359 159.883 89.8682L161.076 89.8301C161.804 89.7962 162.502 89.7158 163.171 89.5889C163.848 89.4619 164.352 89.3138 164.682 89.1445V91.4297C164.487 91.599 164.064 91.7598 163.412 91.9121C162.76 92.056 162.033 92.1449 161.229 92.1787L160.048 92.2168C159.117 92.2507 158.338 92.3818 157.712 92.6104C157.086 92.8389 156.565 93.2028 156.15 93.7021C155.744 94.193 155.427 94.7812 155.198 95.4668C154.97 96.1523 154.788 97.0199 154.652 98.0693H154.754C155.194 97.2568 155.82 96.6348 156.633 96.2031C157.445 95.7715 158.393 95.5557 159.477 95.5557C161.339 95.5557 162.82 96.1608 163.92 97.3711C165.029 98.5729 165.583 100.198 165.583 102.246C165.583 104.413 164.995 106.127 163.818 107.388C162.65 108.64 161.055 109.267 159.032 109.267ZM159.007 106.943C160.2 106.943 161.127 106.537 161.787 105.725C162.447 104.912 162.777 103.761 162.777 102.271C162.777 100.858 162.447 99.762 161.787 98.9834C161.127 98.2048 160.2 97.8154 159.007 97.8154C157.813 97.8154 156.887 98.2048 156.227 98.9834C155.566 99.762 155.236 100.858 155.236 102.271C155.236 103.761 155.562 104.912 156.214 105.725C156.874 106.537 157.805 106.943 159.007 106.943Z" fill="#212121"/>
<path d="M143.709 106.943C144.733 106.943 145.588 106.651 146.273 106.067C146.959 105.475 147.302 104.726 147.302 103.82V102.741L143.95 102.97C142.046 103.088 141.094 103.765 141.094 105.001C141.094 105.593 141.331 106.067 141.805 106.423C142.279 106.77 142.913 106.943 143.709 106.943ZM142.973 109.14C141.593 109.14 140.472 108.767 139.608 108.022C138.745 107.269 138.313 106.279 138.313 105.052C138.313 103.85 138.762 102.906 139.659 102.221C140.565 101.535 141.872 101.137 143.582 101.027L147.302 100.812V99.7451C147.302 98.958 147.048 98.3571 146.54 97.9424C146.041 97.5192 145.33 97.3076 144.407 97.3076C143.662 97.3076 143.032 97.4854 142.516 97.8408C142.008 98.1963 141.695 98.6745 141.576 99.2754H138.999C139.041 98.0566 139.579 97.0452 140.611 96.2412C141.644 95.4372 142.935 95.0352 144.483 95.0352C146.168 95.0352 147.509 95.4456 148.508 96.2666C149.515 97.0876 150.019 98.1794 150.019 99.542V109H147.391V106.702H147.327C146.946 107.447 146.362 108.039 145.575 108.479C144.788 108.92 143.921 109.14 142.973 109.14Z" fill="#212121"/>
<path d="M130.62 95.0732C132.381 95.0732 133.79 95.7122 134.848 96.9902C135.914 98.2682 136.447 99.9736 136.447 102.106C136.447 104.231 135.918 105.936 134.86 107.223C133.811 108.501 132.419 109.14 130.684 109.14C129.693 109.14 128.822 108.932 128.068 108.518C127.315 108.094 126.731 107.502 126.316 106.74H126.266V113.507H123.511V95.2129H126.164V97.498H126.228C126.617 96.7533 127.205 96.165 127.992 95.7334C128.788 95.2933 129.664 95.0732 130.62 95.0732ZM129.922 106.804C131.039 106.804 131.936 106.376 132.613 105.521C133.29 104.667 133.629 103.528 133.629 102.106C133.629 100.685 133.29 99.5462 132.613 98.6914C131.936 97.8366 131.039 97.4092 129.922 97.4092C128.83 97.4092 127.946 97.8408 127.269 98.7041C126.591 99.5674 126.249 100.701 126.24 102.106C126.249 103.52 126.587 104.658 127.256 105.521C127.933 106.376 128.822 106.804 129.922 106.804Z" fill="#212121"/>
<path d="M115.386 109.254C113.778 109.254 112.462 108.89 111.438 108.162C110.413 107.426 109.838 106.431 109.711 105.179H112.428C112.572 105.78 112.897 106.241 113.405 106.562C113.922 106.884 114.582 107.045 115.386 107.045C116.291 107.045 116.994 106.854 117.493 106.474C118.001 106.084 118.255 105.572 118.255 104.938C118.255 103.575 117.299 102.894 115.386 102.894H113.367V100.85H115.348C116.998 100.85 117.823 100.228 117.823 98.9834C117.823 98.4248 117.616 97.9805 117.201 97.6504C116.795 97.3118 116.198 97.1426 115.411 97.1426C114.641 97.1426 114.01 97.2992 113.52 97.6123C113.029 97.9255 112.737 98.3571 112.644 98.9072H110.003C110.147 97.6885 110.701 96.7236 111.666 96.0127C112.631 95.3018 113.875 94.9463 115.398 94.9463C117.023 94.9463 118.28 95.2891 119.169 95.9746C120.058 96.6602 120.502 97.5827 120.502 98.7422C120.502 99.4447 120.299 100.071 119.893 100.621C119.486 101.163 118.945 101.514 118.268 101.675V101.776C119.148 101.988 119.816 102.365 120.273 102.906C120.739 103.448 120.972 104.117 120.972 104.912C120.972 106.224 120.464 107.278 119.448 108.073C118.433 108.86 117.078 109.254 115.386 109.254Z" fill="#212121"/>
<path d="M101.281 106.943C102.305 106.943 103.16 106.651 103.846 106.067C104.531 105.475 104.874 104.726 104.874 103.82V102.741L101.522 102.97C99.6182 103.088 98.666 103.765 98.666 105.001C98.666 105.593 98.903 106.067 99.377 106.423C99.8509 106.77 100.486 106.943 101.281 106.943ZM100.545 109.14C99.1654 109.14 98.0439 108.767 97.1807 108.022C96.3174 107.269 95.8857 106.279 95.8857 105.052C95.8857 103.85 96.3343 102.906 97.2314 102.221C98.137 101.535 99.4447 101.137 101.154 101.027L104.874 100.812V99.7451C104.874 98.958 104.62 98.3571 104.112 97.9424C103.613 97.5192 102.902 97.3076 101.979 97.3076C101.235 97.3076 100.604 97.4854 100.088 97.8408C99.5801 98.1963 99.2669 98.6745 99.1484 99.2754H96.5713C96.6136 98.0566 97.151 97.0452 98.1836 96.2412C99.2161 95.4372 100.507 95.0352 102.056 95.0352C103.74 95.0352 105.081 95.4456 106.08 96.2666C107.087 97.0876 107.591 98.1794 107.591 99.542V109H104.963V106.702H104.899C104.519 107.447 103.935 108.039 103.147 108.479C102.36 108.92 101.493 109.14 100.545 109.14Z" fill="#212121"/>
<path d="M88.1924 95.0732C89.9528 95.0732 91.362 95.7122 92.4199 96.9902C93.4863 98.2682 94.0195 99.9736 94.0195 102.106C94.0195 104.231 93.4906 105.936 92.4326 107.223C91.3831 108.501 89.9909 109.14 88.2559 109.14C87.2656 109.14 86.3939 108.932 85.6406 108.518C84.8874 108.094 84.3034 107.502 83.8887 106.74H83.8379V113.507H81.083V95.2129H83.7363V97.498H83.7998C84.1891 96.7533 84.7773 96.165 85.5645 95.7334C86.36 95.2933 87.236 95.0732 88.1924 95.0732ZM87.4941 106.804C88.6113 106.804 89.5085 106.376 90.1855 105.521C90.8626 104.667 91.2012 103.528 91.2012 102.106C91.2012 100.685 90.8626 99.5462 90.1855 98.6914C89.5085 97.8366 88.6113 97.4092 87.4941 97.4092C86.4023 97.4092 85.5179 97.8408 84.8408 98.7041C84.1637 99.5674 83.821 100.701 83.8125 102.106C83.821 103.52 84.1595 104.658 84.8281 105.521C85.5052 106.376 86.3939 106.804 87.4941 106.804Z" fill="#212121"/>
<path d="M66.3438 109H58.8154V90.6807H66.3184C67.9349 90.6807 69.234 91.0996 70.2158 91.9375C71.1976 92.7669 71.6885 93.8714 71.6885 95.251C71.6885 96.2243 71.3753 97.096 70.749 97.8662C70.1227 98.6279 69.3525 99.085 68.4385 99.2373V99.3389C69.6826 99.4827 70.6855 99.9652 71.4473 100.786C72.2174 101.599 72.6025 102.61 72.6025 103.82C72.6025 105.437 72.0482 106.706 70.9395 107.629C69.8307 108.543 68.2988 109 66.3438 109ZM61.6592 93.0039V98.4756H65.0234C66.2591 98.4756 67.207 98.2301 67.8672 97.7393C68.5273 97.2484 68.8574 96.5501 68.8574 95.6445C68.8574 94.7982 68.5739 94.1465 68.0068 93.6895C67.4482 93.2324 66.6527 93.0039 65.6201 93.0039H61.6592ZM61.6592 106.677H65.7725C67.0505 106.677 68.0238 106.419 68.6924 105.902C69.361 105.386 69.6953 104.633 69.6953 103.643C69.6953 102.652 69.3483 101.908 68.6543 101.408C67.9688 100.9 66.9531 100.646 65.6074 100.646H61.6592V106.677Z" fill="#212121"/>
</svg>
