<svg width="140" height="70" viewBox="0 0 140 70" fill="none" xmlns="http://www.w3.org/2000/svg">
<g clip-path="url(#clip0_1_44)">
<path d="M25.1947 7.80859H25.3588C25.6322 7.80864 25.8692 7.89068 26.0697 8.05469V8.13672C26.0697 8.50135 25.8692 8.98442 25.4681 9.58594C25.14 10.2605 24.3106 11.573 22.9799 13.5234C21.5397 15.8021 19.9811 19.2292 18.3041 23.8047C17.6478 26.0287 17.3197 27.25 17.3197 27.4688V27.5781V27.8516H17.347L20.9564 22.7656C22.5606 20.7787 24.4837 18.5638 26.726 16.1211C28.6035 14.3529 29.6699 13.4232 29.9252 13.332C31.8392 11.9649 33.3067 11.2813 34.3275 11.2813C34.8926 11.2813 35.1751 11.5638 35.1752 12.1289C35.1751 12.3112 34.9199 13.0678 34.4095 14.3984C33.334 17.1511 32.5501 19.3568 32.058 21.0156C31.4199 23.4584 30.9551 25.4818 30.6635 27.0859C30.5541 27.5052 30.4994 27.7878 30.4994 27.9336V28.1797C31.5202 26.849 32.3587 25.8099 33.015 25.0625C34.5645 23.2578 35.6309 22.0547 36.2142 21.4531C37.8184 19.7943 39.4499 18.2448 41.1088 16.8047C42.8587 15.2917 44.5905 13.9701 46.3041 12.8398C48.1634 11.6732 49.7311 10.7982 51.0072 10.2148C54.2337 8.70187 56.5762 7.94536 58.0345 7.94531C58.5449 7.94536 58.8821 8.05474 59.0463 8.27344C59.1374 8.36463 59.1829 8.45578 59.183 8.54688V8.68359C59.1829 9.08468 58.6725 9.71359 57.6517 10.5703C56.7949 11.3907 55.7467 12.4571 54.5072 13.7695C52.9577 15.3191 51.2168 17.224 49.2845 19.4844C48.4095 20.4323 47.2702 21.8269 45.8666 23.668C43.6608 26.4388 41.7559 29.0729 40.1517 31.5703C37.8731 34.9974 35.7494 38.5248 33.7806 42.1523C32.9603 43.9206 32.377 45.4427 32.0306 46.7188L32.0033 46.9102H32.058C33.8262 45.306 35.2754 44.0846 36.4056 43.2461C39.3223 41.2044 41.7012 39.7188 43.5424 38.7891C44.8366 38.1875 45.9303 37.8867 46.8236 37.8867C47.2611 37.905 47.4798 37.987 47.4799 38.1328C47.4798 38.2969 47.0059 38.7071 46.058 39.3633C42.2298 41.7878 39.6504 43.4649 38.3197 44.3945C37.1895 45.1966 35.9134 46.1992 34.4916 47.4023C32.2494 49.4987 30.8093 50.9844 30.1713 51.8594C28.5488 53.8281 27.1999 55.651 26.1244 57.3281C25.6686 58.1484 25.1491 58.5586 24.5658 58.5586H24.4291C23.7181 58.5586 23.0072 57.5469 22.2963 55.5234C21.2754 52.3333 20.765 47.8672 20.765 42.125L20.847 38.3789C20.847 38.2513 20.8197 38.1875 20.765 38.1875C18.4499 40.2292 17.1101 41.4688 16.7455 41.9063C14.7038 44.112 13.2181 45.8984 12.2885 47.2656C9.66344 50.9662 7.43037 54.3841 5.58923 57.5195C5.2611 58.0482 4.91475 58.3125 4.55017 58.3125H4.46814C3.77543 58.3125 3.18298 56.6081 2.6908 53.1992C2.56319 51.9779 2.49939 50.7201 2.49939 49.4258C2.49939 44.8685 3.28324 39.7917 4.85095 34.1953C5.6348 31.625 6.56449 29.1914 7.64001 26.8945C9.1348 23.6315 11.0489 20.3959 13.3822 17.1875C14.1843 16.1302 15.3327 14.8178 16.8275 13.25C18.6504 11.5547 19.8535 10.5339 20.4369 10.1875C22.6608 8.60161 24.2468 7.80864 25.1947 7.80859Z" fill="#E80080"/>
<path d="M68.6439 16.75H68.6986L68.7806 16.832L67.2767 18.7461C66.8574 19.3112 66.6478 19.7579 66.6478 20.0859V20.25C66.6478 20.7058 67.2402 20.9974 68.4252 21.125C69.8106 21.4167 73.5293 21.6901 79.5814 21.9453L80.9213 21.918H80.9759C81.8691 21.9362 82.3157 21.9909 82.3158 22.082V22.1367H82.2884V22.1641L79.6361 22.1914H78.5697C73.9577 22.319 71.1595 22.4831 70.1752 22.6836C68.3887 22.9206 66.9759 23.1758 65.9369 23.4492C64.0957 23.9961 62.7559 24.5339 61.9174 25.0625C61.2429 25.3724 60.1856 26.1381 58.7455 27.3594C57.9252 28.1979 57.36 28.7266 57.0502 28.9453L56.9408 28.9727H56.9135L56.8588 28.918C56.8587 28.7904 57.2598 28.2891 58.0619 27.4141C58.4265 26.9584 58.7181 26.3021 58.9369 25.4453L58.9642 25.0898V24.9805C58.9642 24.142 58.3444 23.5586 57.1049 23.2305C56.2481 23.0847 55.4369 23.0118 54.6713 23.0117C54.252 23.0118 53.5137 23.0482 52.4564 23.1211L52.4291 23.0938V23.0391C52.4291 22.9662 52.9851 22.875 54.097 22.7656C55.9929 22.4922 57.5697 22.1732 58.8275 21.8086C60.3952 21.3894 61.9265 20.8607 63.4213 20.2227C64.5514 19.7487 65.6634 19.1198 66.7572 18.3359C67.9238 17.3151 68.5254 16.8047 68.5619 16.8047L68.6439 16.75ZM55.3275 30.5859C56.002 30.6407 56.3392 30.905 56.3392 31.3789C56.3392 31.8347 55.6465 32.892 54.2611 34.5508C51.545 37.8685 49.4851 40.6211 48.0814 42.8086C47.0606 44.4675 46.3405 45.944 45.9213 47.2383C47.7806 46.0534 49.002 45.2513 49.5853 44.832C52.8848 42.2253 55.2455 40.4024 56.6674 39.3633C56.9408 39.181 57.6061 38.6432 58.6635 37.75C59.6843 37.0026 60.3496 36.6289 60.6595 36.6289C60.8418 36.6654 60.933 36.7474 60.933 36.875C60.933 37.4037 60.2403 38.3516 58.8549 39.7188C58.1804 40.4297 55.6556 42.7266 51.2806 46.6094C48.6009 48.9427 46.7416 50.6198 45.7025 51.6406C43.0411 54.0833 41.4551 55.4779 40.9447 55.8242C38.739 57.5742 37.3536 58.5039 36.7885 58.6133H36.7611C36.4148 58.3034 36.2416 57.7474 36.2416 56.9453C36.2416 54.849 37.4356 51.2396 39.8236 46.1172C41.0996 43.5287 42.7858 40.7852 44.8822 37.8867C45.5931 36.8659 46.5684 35.7266 47.808 34.4688C48.8106 33.5755 49.7129 32.9011 50.515 32.4453C51.5905 31.8255 52.5476 31.3607 53.3861 31.0508C54.3705 30.7409 55.0176 30.586 55.3275 30.5859Z" fill="#E80080"/>
<path d="M71.433 30.2031C72.1986 30.2032 72.6999 30.3672 72.9369 30.6953L72.9916 30.8867C72.9916 31.1784 72.0163 32.7279 70.0658 35.5352C69.3184 36.6654 68.5345 38.0964 67.7142 39.8281H67.7416C70.8223 37.7682 73.0371 36.3737 74.3861 35.6445C80.0371 32.2175 83.8926 30.5039 85.9525 30.5039H86.2259C87.028 30.5039 87.584 30.8321 87.8939 31.4883C87.9668 31.7435 88.0033 31.9623 88.0033 32.1445C88.0033 33.4935 86.9642 35.4714 84.8861 38.0781C81.0033 43.1823 79.0619 45.78 79.0619 45.8711C78.6244 46.5456 78.4056 46.9466 78.4056 47.0742L78.3225 47.1847C86.2385 42.4942 96.9842 37.2262 100.112 37.1029C100.322 37.2885 100.586 37.7097 100.622 37.819C99.7117 37.6093 91.202 41.9742 85.1322 46.0898L74.5502 53.418C69.3366 56.7904 66.2377 58.4766 65.2533 58.4766H65.1166C64.6244 58.4766 64.3327 57.9844 64.2416 57V56.6172C64.2416 54.9219 65.2624 52.1602 67.3041 48.332C69.3822 45.2695 71.4421 42.5534 73.4838 40.1836H73.4564C70.5762 41.9701 67.9877 43.6654 65.6908 45.2695C63.8861 46.6367 62.291 47.9857 60.9056 49.3164C58.2259 51.832 55.6283 54.4023 53.1127 57.0273C52.1648 57.9206 51.3991 58.3672 50.8158 58.3672H50.7338C50.1687 58.3672 49.795 57.9935 49.6127 57.2461L49.558 56.6172V56.2617C49.558 54.1471 50.6973 50.7383 52.976 46.0352C54.3796 43.319 55.9473 40.8854 57.6791 38.7344C58.6452 37.5677 59.8575 36.319 61.3158 34.9883C62.9564 33.6211 64.1413 32.7643 64.8705 32.418C67.4225 30.9414 69.61 30.2032 71.433 30.2031Z" fill="#E80080"/>
<path d="M134.305 4.27524C135.618 4.27538 136.875 5.53319 138.079 8.04868C138.461 9.19725 138.653 10.373 138.653 11.576V12.0682C138.653 14.2558 137.997 16.7441 136.684 19.5331C136.137 20.5175 135.454 21.584 134.633 22.7323C133.813 23.8808 132.664 25.248 131.188 26.8338C129.93 28.0918 129 28.9394 128.399 29.3768C127.196 30.3066 125.883 31.2363 124.461 32.1659C121.618 33.916 118.637 35.3105 115.52 36.3495C114.098 36.8417 112.184 37.3339 109.778 37.826C107.809 38.1542 106.415 38.3183 105.594 38.3182C106.633 39.7949 108.329 41.7636 110.68 44.2245C112.649 46.1386 114.071 47.4511 114.946 48.162C117.079 49.8574 118.637 50.9511 119.622 51.4432C121.59 52.4824 122.985 53.2753 123.805 53.8221C124.789 54.4238 125.719 55.1074 126.594 55.8729C127.524 56.748 127.989 57.5956 127.989 58.4159C127.989 60.0566 126.567 61.205 123.723 61.8612C122.793 62.0253 121.864 62.1073 120.934 62.1073C116.997 62.1073 113.196 60.7675 109.532 58.0877C106.961 56.0644 105.157 53.5761 104.118 50.6229C103.735 49.6386 103.325 48.1074 102.887 46.0291C102.723 45.1542 102.559 43.8144 102.395 42.0096C102.34 41.0253 102.258 40.4785 102.149 40.369C101.821 40.4785 101.493 40.7519 101.165 41.1893L100.18 42.912C99.3051 44.2792 98.3755 46.3574 97.3911 49.1463C97.0083 50.0761 96.6255 51.2245 96.2427 52.5916C95.5317 55.8183 94.8755 57.8144 94.2739 58.5799C93.2348 60.1113 91.7309 61.2324 89.7622 61.9432C88.9966 62.162 88.313 62.2714 87.7114 62.2713C86.3989 62.2714 85.1137 61.8613 83.856 61.0409C82.5981 60.1113 81.9692 58.8534 81.9692 57.2674V56.9393C81.9692 53.166 85.3872 48.5175 92.2231 42.994C94.7387 40.9707 97.063 39.3574 99.1958 38.1541L100.262 37.5799C99.0044 36.2675 98.0473 35.1191 97.3911 34.1346C96.0786 32.3847 95.1489 30.9082 94.6021 29.7049C93.9458 28.3925 93.3169 26.3964 92.7153 23.7166C92.3872 22.1855 92.2231 20.791 92.2231 19.5331V19.2049C92.2231 15.9785 93.3442 12.8613 95.5864 9.85336C96.0786 9.08787 96.8715 8.1035 97.9653 6.90024C99.6606 5.31444 101.165 4.52147 102.477 4.52133C103.407 4.52147 104.172 4.84959 104.774 5.50571C105.211 6.21678 105.43 6.95506 105.43 7.72055V8.3768C105.43 10.0722 105.184 12.123 104.692 14.5291C104.254 16.8808 104.036 20.2441 104.036 24.619C104.036 27.9004 104.227 31.4003 104.61 35.119C106.141 34.0253 108.438 32.0839 111.5 29.2948C114.344 26.5605 116.805 24.0449 118.883 21.7479C122.438 17.9199 125.309 14.6386 127.497 11.9041C128.754 10.4824 129.793 9.19725 130.614 8.04868C131.489 6.73631 132.254 5.69725 132.911 4.93149C133.348 4.49413 133.813 4.27538 134.305 4.27524ZM96.8989 23.8807C96.8989 25.9589 97.227 27.9277 97.8833 29.787C98.2661 30.8808 99.1411 32.3574 100.508 34.2166L101.329 35.2831L101.165 22.9784L101.247 22.2401C101.247 21.2558 100.727 20.5722 99.688 20.1893C99.4692 20.1894 99.3051 20.1894 99.1958 20.1893C98.2114 20.1894 97.5278 20.7363 97.145 21.8299C96.9809 22.4863 96.8989 23.1699 96.8989 23.8807ZM107.235 36.0213H107.317C108.411 36.0214 110.899 35.2285 114.782 33.6424C117.297 32.5488 119.512 31.373 121.426 30.1151C122.356 29.4589 123.231 28.7754 124.051 28.0643C125.364 26.8613 126.02 25.7402 126.02 24.701V24.4549C126.02 23.7441 125.774 23.1972 125.282 22.8143C125.008 22.6504 124.707 22.5683 124.379 22.5682C122.957 22.5683 121.043 23.8808 118.637 26.5057C116.668 28.4746 115.137 29.9238 114.043 30.8534L112.485 32.1659C110.461 33.7519 108.711 35.0371 107.235 36.0213ZM104.364 41.2713V41.3534C104.364 42.5566 104.665 44.2246 105.266 46.3573C105.594 47.3964 106.004 48.4355 106.497 49.4745C108.684 53.7402 110.954 55.873 113.305 55.8729C114.235 55.873 114.864 55.5449 115.192 54.8885C115.301 54.6699 115.356 54.4511 115.356 54.2323C115.356 53.1933 114.836 52.2363 113.797 51.3612C112.758 50.6503 111.747 49.83 110.762 48.9002C109.067 47.3691 108 46.33 107.563 45.7831C105.868 43.7597 104.801 42.2558 104.364 41.2713ZM88.2856 52.6737V52.7557C88.2856 53.5761 88.8052 54.1777 89.8442 54.5604L90.2544 54.6424C91.2387 54.6425 92.0591 53.6855 92.7153 51.7713C94.0278 48.4902 95.2583 45.8105 96.4067 43.7323C96.7895 43.0214 97.3364 42.2285 98.0474 41.3534C96.7348 42.2831 95.2309 43.4316 93.5356 44.7987C92.6059 45.5644 91.7856 46.3847 91.0747 47.2596C89.7622 48.791 89.0239 49.7753 88.8599 50.2127C88.477 51.2519 88.2856 52.0722 88.2856 52.6737Z" fill="#E80080"/>
</g>
<defs>
<clipPath id="clip0_1_44">
<rect width="140" height="70" fill="white"/>
</clipPath>
</defs>
</svg>
