<svg width="300" height="200" viewBox="0 0 300 200" fill="none" xmlns="http://www.w3.org/2000/svg">
<rect width="300" height="200" rx="30" fill="#F7F7F7"/>
<path d="M221.527 109H218.823V95.2129H221.527V104.963H221.629L228.218 95.2129H230.922V109H228.218V99.2119H228.116L221.527 109Z" fill="#212121"/>
<path d="M210.647 101.7L217.021 109H213.58L208.02 102.589H207.918V109H205.188V95.2129H207.918V101.142H208.02L213.517 95.2129H216.792L210.647 101.7Z" fill="#212121"/>
<path d="M199.374 109V102.957H192.912V109H190.183V95.2129H192.912V100.773H199.374V95.2129H202.104V109H199.374Z" fill="#212121"/>
<path d="M177.703 109H174.999V95.2129H177.703V104.963H177.805L184.394 95.2129H187.098V109H184.394V99.2119H184.292L177.703 109Z" fill="#212121"/>
<path d="M172.93 95.2129V97.3965H168.575V109H165.858V97.3965H161.504V95.2129H172.93Z" fill="#212121"/>
<path d="M154.407 95.0732C156.168 95.0732 157.577 95.7122 158.635 96.9902C159.701 98.2682 160.234 99.9736 160.234 102.106C160.234 104.231 159.705 105.936 158.647 107.223C157.598 108.501 156.206 109.14 154.471 109.14C153.48 109.14 152.609 108.932 151.855 108.518C151.102 108.094 150.518 107.502 150.104 106.74H150.053V113.507H147.298V95.2129H149.951V97.498H150.015C150.404 96.7533 150.992 96.165 151.779 95.7334C152.575 95.2933 153.451 95.0732 154.407 95.0732ZM153.709 106.804C154.826 106.804 155.723 106.376 156.4 105.521C157.077 104.667 157.416 103.528 157.416 102.106C157.416 100.685 157.077 99.5462 156.4 98.6914C155.723 97.8366 154.826 97.4092 153.709 97.4092C152.617 97.4092 151.733 97.8408 151.056 98.7041C150.379 99.5674 150.036 100.701 150.027 102.106C150.036 103.52 150.374 104.658 151.043 105.521C151.72 106.376 152.609 106.804 153.709 106.804Z" fill="#212121"/>
<path d="M138.094 106.943C139.118 106.943 139.973 106.651 140.658 106.067C141.344 105.475 141.687 104.726 141.687 103.82V102.741L138.335 102.97C136.431 103.088 135.479 103.765 135.479 105.001C135.479 105.593 135.715 106.067 136.189 106.423C136.663 106.77 137.298 106.943 138.094 106.943ZM137.357 109.14C135.978 109.14 134.856 108.767 133.993 108.022C133.13 107.269 132.698 106.279 132.698 105.052C132.698 103.85 133.147 102.906 134.044 102.221C134.95 101.535 136.257 101.137 137.967 101.027L141.687 100.812V99.7451C141.687 98.958 141.433 98.3571 140.925 97.9424C140.425 97.5192 139.715 97.3076 138.792 97.3076C138.047 97.3076 137.417 97.4854 136.9 97.8408C136.393 98.1963 136.079 98.6745 135.961 99.2754H133.384C133.426 98.0566 133.964 97.0452 134.996 96.2412C136.029 95.4372 137.319 95.0352 138.868 95.0352C140.552 95.0352 141.894 95.4456 142.893 96.2666C143.9 97.0876 144.403 98.1794 144.403 99.542V109H141.775V106.702H141.712C141.331 107.447 140.747 108.039 139.96 108.479C139.173 108.92 138.305 109.14 137.357 109.14Z" fill="#212121"/>
<path d="M125.462 101.7L131.835 109H128.395L122.834 102.589H122.732V109H120.003V95.2129H122.732V101.142H122.834L128.331 95.2129H131.606L125.462 101.7Z" fill="#212121"/>
<path d="M111.941 95.2129V97.3965H107.587V109H104.87V97.3965H100.516V95.2129H111.941Z" fill="#212121"/>
<path d="M93.0889 97.2822C92.0986 97.2822 91.2734 97.6123 90.6133 98.2725C89.9616 98.9326 89.5977 99.7917 89.5215 100.85H96.5166C96.4827 99.7747 96.1527 98.9115 95.5264 98.2598C94.9001 97.6081 94.0876 97.2822 93.0889 97.2822ZM96.5039 104.963H99.1318C98.9372 106.199 98.2897 107.21 97.1895 107.997C96.0892 108.776 94.7646 109.165 93.2158 109.165C91.2184 109.165 89.6357 108.539 88.4678 107.286C87.3083 106.025 86.7285 104.315 86.7285 102.157C86.7285 99.999 87.3083 98.2725 88.4678 96.9775C89.6273 95.6826 91.1719 95.0352 93.1016 95.0352C94.9974 95.0352 96.4997 95.6488 97.6084 96.876C98.7171 98.0947 99.2715 99.7493 99.2715 101.84V102.805H89.5088V102.97C89.5088 104.163 89.8516 105.124 90.5371 105.852C91.2227 106.571 92.1325 106.931 93.2666 106.931C94.0706 106.931 94.7646 106.753 95.3486 106.397C95.9326 106.042 96.3177 105.564 96.5039 104.963Z" fill="#212121"/>
<path d="M83.9102 109H81.0664V100.888H71.6592V109H68.8154V90.6807H71.6592V98.4248H81.0664V90.6807H83.9102V109Z" fill="#212121"/>
</svg>
